SplineFontDB: 3.2
FontName: SaraCicak
FullName: SaraCicak
FamilyName: SaraCicak
Weight: Regular
Copyright: Copyright (c) 2024, HP
UComments: "2024-3-17: Created with FontForge (http://fontforge.org)"
Version: 001.000
ItalicAngle: 0
UnderlinePosition: -100
UnderlineWidth: 50
Ascent: 800
Descent: 200
InvalidEm: 0
LayerCount: 2
Layer: 0 0 "Stra+AX4A-nji" 1
Layer: 1 0 "Prednji" 0
XUID: [1021 878 -821480890 7585]
OS2Version: 0
OS2_WeightWidthSlopeOnly: 0
OS2_UseTypoMetrics: 1
CreationTime: 1710710306
ModificationTime: 1710880736
OS2TypoAscent: 0
OS2TypoAOffset: 1
OS2TypoDescent: 0
OS2TypoDOffset: 1
OS2TypoLinegap: 0
OS2WinAscent: 0
OS2WinAOffset: 1
OS2WinDescent: 0
OS2WinDOffset: 1
HheadAscent: 0
HheadAOffset: 1
HheadDescent: 0
HheadDOffset: 1
OS2Vendor: 'PfEd'
MarkAttachClasses: 1
DEI: 91125
Encoding: iso8859-2
UnicodeInterp: none
NameList: AGL For New Fonts
DisplaySize: -48
AntiAlias: 1
FitToEm: 0
WinInfo: 0 38 13
BeginPrivate: 0
EndPrivate
Grid
-1458 1300 m 0
 -1458 -700 l 1024
EndSplineSet
BeginChars: 256 21

StartChar: Zcaron
Encoding: 174 381 1
Width: 856
Flags: HW
LayerCount: 2
Fore
SplineSet
232 791 m 1
 400 673 l 1
 511.186523438 718.288085938 719.1171875 778.098632812 536 791 c 1
 449 789 l 1
 402 735 l 1
 382 710 374 746 364 791 c 1
 232 791 l 1
626 173 m 1
 245.678710938 208.469726562 275.696137315 -36.7646137114 129 40 c 1
 505 233 818 427 793 546 c 1
 793 652 l 1
 0 651 l 1
 0 411 l 1
 12.6553035745 486.981621825 5.44705601739 598.508183103 168 554 c 1
 205.447746303 515.732222216 -320.66796875 293.548828125 679 555 c 1
 405.259765625 380.361328125 -35.8073645449 194.955988934 0 45 c 1
 0 0 l 1
 793 1 l 1
 798 214 l 1
 727.2109375 39.9345703125 714.751953125 161.327148438 626 173 c 1
679 555 m 1025
EndSplineSet
EndChar

StartChar: zcaron
Encoding: 190 382 2
Width: 530
Flags: HW
LayerCount: 2
Fore
SplineSet
125 631 m 13
 198 630 l 1
 229.450195312 627.766601562 227.380859375 585.655273438 234 572 c 1
 258 628 l 1
 321 628 l 1
 396.478515625 628.86328125 300.752929688 575.150390625 234 539 c 1
 125 631 l 13
0 0 m 1
 0 90 l 17
 -3.00142246619 169.260746104 329.495879506 376.971954866 369 376 c 1
 279.701873533 383.674333944 301.39763163 510.494727605 75 371 c 1
 66.5184806505 480.401122397 33.2439578137 378.570356976 0 277 c 1
 0 277 -2 516 -1 516 c 8
 0 516 504 517 504 517 c 1
 503 352 l 1
 308.118838155 263.052590109 36.3742762636 20.4316776638 163 78 c 0
 229.428567471 108.20066596 499.359782233 198.937006863 422 76 c 0
 385.807674634 18.484634477 430.959637104 25.1349125445 513 154 c 1
 513 0 l 1
 0 0 l 1
EndSplineSet
EndChar

StartChar: S
Encoding: 83 83 3
Width: 910
Flags: HW
LayerCount: 2
Fore
SplineSet
803 635 m 1
 451.000976562 675.446289062 63.1748046875 720.76171875 346 636 c 1
 -17.421875 555.849609375 -89.552734375 506.650390625 107 486 c 1
 -19.388671875 199.06640625 126.146484375 315.1328125 198 322 c 1
 645 294 l 1
 700.284179688 283.014648438 706.578125 244.918945312 715 208 c 1
 726.893554688 143.0703125 695.819335938 133.688476562 682 102 c 1
 -17.00390625 338.748046875 328.513671875 134.981445312 141 169 c 5
 66.35546875 190.05078125 92.7626953125 83.591796875 61 91 c 4
 -50.689453125 117.048828125 53.96484375 24.291015625 119 9 c 5
 478.194335938 65.4482421875 603.171875 -2.2568359375 822 0 c 1
 875.905273438 54.9130859375 926.849609375 111.427734375 865 229 c 1
 650.23828125 460.822265625 768.28515625 401.7578125 773 403 c 1
 738.140625 488.609375 154.9375 317.489257812 278 426 c 1
 236.848632812 424.497070312 91.990234375 373.645507812 267 475 c 1
 142.012695312 492.26953125 202.593532019 568.919962628 302 536 c 0
 563.224157134 449.491650341 889.852748462 471.561963769 807 495 c 1
 887.141601562 517.236328125 939.633789062 580.9296875 803 635 c 1
EndSplineSet
EndChar

StartChar: s
Encoding: 115 115 4
Width: 544
Flags: HW
LayerCount: 2
Fore
SplineSet
386 590 m 1
 100.106445312 596.16015625 272.666992188 573.270507812 206 569 c 1
 -101.754882812 497.995117188 111.787109375 462.067382812 96 450 c 1
 -73.2666015625 265.607421875 88.0986328125 336.6171875 119 331 c 1
 225 302 l 1
 328.053710938 292.34765625 351.37890625 336.560546875 380 289 c 1
 397.879882812 183.329101562 341.451171875 118.801757812 338 115 c 1
 246.834960938 139.587890625 79.5537109375 188.877929688 14 122 c 1
 2.0048828125 110 64.7109375 97 60 85 c 1
 52.0693359375 58.474609375 137.163085938 51.9931640625 145 48 c 1
 221.99609375 44.6103515625 36.2001953125 4.009765625 350 8 c 1
 402.240234375 14.4228515625 541.353515625 -4.3701171875 497 102 c 1
 474.353515625 164.296875 477.3046875 313.739257812 459 358 c 1
 420.411132812 437.666015625 236.887695312 350.391601562 188 394 c 1
 176.47265625 406.369140625 155.122070312 457.455078125 215 475 c 1
 284.661132812 495.98828125 373.834960938 539.526367188 388 487 c 1
 408.013671875 496.456054688 507.106445312 485.793945312 446 565 c 1
 423.219726562 586.434570312 401.573242188 587.474609375 386 590 c 1
EndSplineSet
EndChar

StartChar: scaron
Encoding: 185 353 5
Width: 533
Flags: HW
LayerCount: 2
Fore
SplineSet
209 695 m 5
 219.362304688 659.438476562 188.91015625 690.755859375 173 693 c 4
 166.661132812 693.89453125 253.0234375 595.70703125 272 592 c 1
 301.201171875 611.05078125 336.482421875 612.3828125 368 683 c 1
 357.35546875 710.041992188 344.412109375 699.96875 334 695 c 1
 311.854492188 680.288085938 279.135742188 671.663085938 264 657 c 1
 257.333984375 682.333007812 223.666992188 696.333007812 209 695 c 5
384 556 m 1
 98.1064453125 562.16015625 250.666992188 540.270507812 184 536 c 1
 -123.754882812 464.995117188 102.787109375 477.067382812 87 465 c 1
 -82.2666015625 280.607421875 80.0986328125 332.6171875 111 327 c 1
 193 296 l 1
 296.053710938 286.34765625 350.37890625 317.560546875 379 270 c 1
 396.879882812 164.329101562 343.451171875 127.801757812 340 124 c 1
 248.834960938 148.587890625 81.5537109375 197.877929688 16 131 c 1
 4.0048828125 119 76.7109375 148 72 136 c 1
 64.0693359375 109.474609375 129.163085938 53.9931640625 137 50 c 1
 213.99609375 46.6103515625 28.2001953125 6.009765625 342 10 c 1
 394.240234375 16.4228515625 533.353515625 -9.3701171875 489 97 c 1
 466.353515625 159.296875 476.3046875 287.739257812 458 332 c 1
 419.411132812 411.666015625 215.887695312 332.391601562 167 376 c 1
 155.47265625 388.369140625 137.122070312 438.455078125 197 456 c 1
 266.661132812 476.98828125 371.834960938 480.526367188 386 428 c 1
 406.013671875 437.456054688 505.106445312 451.793945312 444 531 c 1
 421.219726562 552.434570312 399.573242188 553.474609375 384 556 c 1
EndSplineSet
EndChar

StartChar: Scaron
Encoding: 169 352 6
Width: 910
Flags: HW
LayerCount: 2
Fore
SplineSet
386 798 m 9
 386 798 353.719307417 777.885414843 343 774 c 0
 284.939400982 752.954842471 498.585393685 688.610822201 546 701 c 1
 655.254502493 731.878370884 898.091668281 762.381115177 744 794 c 1
 750.197743822 829.914571573 707.4550632 829.106718983 623 797 c 1
 684.77626808 875.428119439 545.136082993 746.74767784 542 750 c 0
 478.456836547 815.898395888 318.890189051 864.620984983 386 798 c 9
803 635 m 1
 451.000976562 675.446289062 63.1748046875 720.76171875 346 636 c 1
 -17.421875 555.849609375 -89.552734375 506.650390625 107 486 c 1
 -19.388671875 199.06640625 126.146484375 315.1328125 198 322 c 1
 645 294 l 1
 700.284179688 283.014648438 706.578125 244.918945312 715 208 c 1
 726.893554688 143.0703125 695.819335938 133.688476562 682 102 c 1
 -17.00390625 338.748046875 348.513671875 135.981445312 161 170 c 1
 86.35546875 191.05078125 112.762695312 84.591796875 81 92 c 0
 -30.689453125 118.048828125 73.96484375 25.291015625 139 10 c 1
 498.194335938 66.4482421875 603.171875 -2.2568359375 822 0 c 1
 875.905273438 54.9130859375 926.849609375 111.427734375 865 229 c 1
 650.23828125 460.822265625 768.28515625 401.7578125 773 403 c 1
 738.140625 488.609375 154.9375 317.489257812 278 426 c 1
 236.848632812 424.497070312 91.990234375 373.645507812 267 475 c 1
 142.012695312 492.26953125 202.593532019 568.919962628 302 536 c 0
 563.224157134 449.491650341 889.852748462 471.561963769 807 495 c 1
 887.141601562 517.236328125 939.633789062 580.9296875 803 635 c 1
EndSplineSet
EndChar

StartChar: Ccaron
Encoding: 200 268 7
Width: 773
Flags: HW
LayerCount: 2
Fore
SplineSet
286 803 m 1
 269.410827268 769.449022215 368.007565147 744.597757612 417 716 c 1
 507.168940463 740.403306265 674.118398737 770.154871623 584 782 c 1
 612.422325698 802.016936628 619.119822758 817.895819511 564 822 c 1
 550.679703403 840.568225945 529.644234018 839.809318175 503 825 c 1
 472.643981946 822.1840575 445.9056232 798.768762206 418 782 c 1
 395.84217904 810.925784082 374.137800078 841.074258036 339 835 c 1
 318.486801432 842.809774013 294.642299726 856.675017876 292 832 c 1
 270.458172829 818.877157275 278.052545312 810.907355501 286 803 c 1
641 629 m 1
 325.296875 692.921875 144.943359375 735.317382812 250 615 c 1
 -17.279296875 573.54296875 13.279296875 509.874023438 60 445 c 1
 -61.6552734375 65.525390625 73.3984375 267.041992188 92 205 c 1
 33.01171875 115.376953125 143.481445312 83.3583984375 200 33 c 1
 108.254882812 -22.806640625 637.546379908 47.6078339621 640 25 c 4
 645.49009605 -25.5861442509 732.263254479 36.166902707 728 95 c 5
 719.305882818 115.355932189 734.043144303 136.193780383 650 155 c 1
 724.858398438 169.344726562 660.173828125 264.782226562 316 159 c 0
 267.62109375 144.130859375 141.045898438 215.844726562 228 243 c 1
 170.533203125 322.376953125 183.596679688 389.2109375 220 418 c 1
 88.228515625 391.286132812 279.407226562 500.216796875 331 508 c 1
 460.9453125 551.073242188 683.994140625 424.940429688 653 523 c 1
 653.001953125 516.7890625 712.602539062 554.052734375 723 569 c 0
 743.377929688 598.293945312 671.463867188 623.609375 641 629 c 1
EndSplineSet
EndChar

StartChar: Cacute
Encoding: 198 262 8
Width: 773
Flags: HW
LayerCount: 2
Fore
SplineSet
442 738 m 9
 442 738 555.388671875 832.913085938 558 834 c 0
 650.200195312 872.388671875 592.534974985 806.550015897 663 841 c 0
 768.932162193 892.789682936 689.243330458 787.65936151 651 769 c 1
 752.854889067 837.431673435 750.233082427 732.818956947 557 725 c 1
 570.680489936 693.292141974 525.319112448 697.851917179 479 703 c 1
 444.989351783 706.54559104 401.455155134 706.523329813 442 738 c 9
636 634 m 1
 320.296875 697.921875 144.943359375 735.317382812 250 615 c 1
 -17.279296875 573.54296875 13.279296875 509.874023438 60 445 c 1
 -61.6552734375 65.525390625 73.3984375 267.041992188 92 205 c 1
 33.01171875 115.376953125 143.481445312 83.3583984375 200 33 c 1
 108.254882812 -22.806640625 620.051757812 14.08203125 640 25 c 0
 641.754882812 25.9599609375 728 95 728 95 c 25
 650 155 l 1
 724.858398438 169.344726562 660.173828125 264.782226562 316 159 c 0
 267.62109375 144.130859375 141.045898438 215.844726562 228 243 c 1
 170.533203125 322.376953125 183.596679688 389.2109375 220 418 c 1
 88.228515625 391.286132812 279.407226562 500.216796875 331 508 c 1
 460.9453125 551.073242188 678.994140625 429.940429688 648 528 c 1
 648.001953125 521.7890625 707.602539062 559.052734375 718 574 c 0
 738.377929688 603.293945312 666.463867188 628.609375 636 634 c 1
EndSplineSet
EndChar

StartChar: cacute
Encoding: 230 263 9
Width: 504
Flags: HW
LayerCount: 2
Fore
SplineSet
230 556 m 1
 207.434570312 575.67578125 263.694335938 589.813476562 277 607 c 5
 378.69921875 681.698242188 478.822265625 684.779296875 458 666 c 5
 499.999023438 660.666992188 490.666015625 617.333007812 450 596 c 1
 462.657226562 583.733398438 454.262695312 573.600585938 411 567 c 1
 403.276367188 542.5859375 308.317382812 538.109375 272 542 c 1
 230 556 l 1
372 516 m 1
 298.628463284 518.228823855 138.579459386 553.404086715 180 512 c 1
 -71.9825449282 417.105607196 54.4894274675 430.069593476 44 404 c 1
 -68.7201533336 128.524551151 2.97022925947 197.278280117 20 164 c 1
 41.1768365195 67.5228121086 72.0084549241 29.1984993653 110 34 c 1
 194.661963927 -12.1759649753 334.361328125 53.3310546875 311 5 c 0
 300.067382812 -17.6181640625 440.46484375 19.701171875 455 57 c 1
 462.673828125 79.9833984375 472.04296875 103.751953125 463 119 c 1
 521.978515625 187.0234375 438.934570312 147.995117188 409 149 c 1
 408.360351562 190.030273438 329.002459956 137.699219531 241 112 c 1
 286.999263179 132.333332514 252.999263206 151.999999192 139 171 c 1
 113.869140625 189.530273438 93.69921875 217.0859375 132 351 c 1
 141.783173096 374.021310121 140.777803964 416.306733087 242 396 c 1
 296.451578482 392.532388226 425.802756445 362.504423003 408 398 c 1
 436.023957232 401.586992959 520.92098445 336.210265699 466 442 c 1
 477.697942731 435.959405841 466.922158251 486.228958951 444 496 c 0
 440.320361419 497.568521569 404 518 372 516 c 1
EndSplineSet
EndChar

StartChar: ccaron
Encoding: 232 269 10
Width: 504
Flags: HW
LayerCount: 2
Fore
SplineSet
210 669 m 1
 200.697265625 684.504882812 185.4921875 662.71875 157 669 c 0
 137.26953125 673.349609375 146.133789062 643.400390625 151 642 c 1
 108.818359375 635.90234375 186.490234375 559.831054688 253 554 c 5
 334.623046875 556.578125 390.896484375 618.549804688 354 628 c 1
 378.446289062 655.248046875 388.620117188 673.831054688 352 664 c 1
 324.390625 686.943359375 316.680664062 677.314453125 310 666 c 1
 283.088867188 664.913085938 270.985081452 637.015579337 262 618 c 1
 247.244095533 643.803821819 223.293945312 681.733398438 210 669 c 1
372 516 m 1
 298.628463284 518.228823855 138.579459386 553.404086715 180 512 c 1
 -71.9825449282 417.105607196 54.4894274675 430.069593476 44 404 c 1
 -68.7201533336 128.524551151 2.97022925947 197.278280117 20 164 c 1
 41.1768365195 67.5228121086 72.0084549241 29.1984993653 110 34 c 1
 194.661963927 -12.1759649753 334.361328125 53.3310546875 311 5 c 0
 300.067382812 -17.6181640625 440.46484375 19.701171875 455 57 c 1
 462.673828125 79.9833984375 472.04296875 103.751953125 463 119 c 1
 521.978515625 187.0234375 438.934570312 147.995117188 409 149 c 1
 408.360351562 190.030273438 329.002459956 137.699219531 241 112 c 1
 286.999263179 132.333332514 252.999263206 151.999999192 139 171 c 1
 113.869140625 189.530273438 93.69921875 217.0859375 132 351 c 1
 141.783173096 374.021310121 140.777803964 416.306733087 242 396 c 1
 296.451578482 392.532388226 425.802756445 362.504423003 408 398 c 1
 436.023957232 401.586992959 520.92098445 336.210265699 466 442 c 1
 477.697942731 435.959405841 466.922158251 486.228958951 444 496 c 0
 440.320361419 497.568521569 404 518 372 516 c 1
EndSplineSet
EndChar

StartChar: dcroat
Encoding: 240 273 11
Width: 564
Flags: HW
LayerCount: 2
Fore
SplineSet
180 247 m 1
 142.844726562 253.354492188 69.765625 201.458007812 111 191 c 0
 148.915039062 181.383789062 122.319335938 116.778320312 131 113 c 1
 145.198242188 92.3095703125 220.349609375 55.046875 211 91 c 0
 201.537109375 127.38671875 274.868164062 103.516601562 289 155 c 0
 294.396484375 174.658203125 302.744140625 182.319335938 228 224 c 1
 208.853515625 234.192382812 230.899414062 268.85546875 180 247 c 1
410 697 m 1
 455.325195312 708.10546875 357.897460938 605.481445312 410.1875 627 c 0
 496.76953125 662.629882812 494.548828125 632.879882812 513 624 c 0
 566.779296875 598.1171875 535.377929688 535.85546875 506 540 c 0
 452.059570312 547.610351562 407.323242188 551.68359375 408.796875 538 c 0
 454.904296875 109.794921875 400.842773438 224.327148438 401 39 c 1
 364.338867188 29.6416015625 313.024414062 -6.7158203125 303 33 c 1
 64.3291015625 -9.703125 64.8466796875 10.9619140625 63 31 c 1
 45.275390625 67.6708984375 3.626953125 69.41796875 29 169 c 1
 19.509765625 158.217773438 -18.490234375 168.495117188 49 273 c 0
 53.0361328125 279.249023438 26.8984375 289.736328125 111 321 c 0
 153.977539062 336.9765625 128.947265625 372.677734375 219 327 c 0
 263.125 304.618164062 299 291 299 289 c 0
 299 288.213867188 301.484375 532 301.484375 532 c 1
 256.290039062 520.056640625 192.416992188 487.196289062 197 531 c 1
 194.364257812 562.501953125 85.4169921875 579.428710938 200 627 c 1
 180.415039062 643.817382812 192.227539062 651.39453125 302.482421875 630 c 1
 300.08203125 653 357.399414062 676 302 699 c 1
 415.44140625 761.469726562 393.196289062 713.317382812 410 697 c 1
EndSplineSet
EndChar

StartChar: Dcroat
Encoding: 208 272 12
Width: 708
Flags: HW
LayerCount: 2
Fore
SplineSet
253 598 m 1
 289.27734375 631.383789062 354.516601562 558.205078125 471 566 c 0
 565.252929688 572.306640625 574.9296875 415.401367188 545 413 c 1
 514.703125 404.602539062 485.078125 368.342773438 521 295 c 0
 546.39453125 243.151367188 408.987304688 121.850585938 391 150 c 1
 392.172851562 210.322265625 308.094726562 171.84375 247 160 c 1
 258.13671875 214.381835938 169.259765625 356.64453125 250.213867188 340 c 0
 331.966796875 323.190429688 341.817382812 332.009765625 337 344 c 0
 321.1796875 383.380859375 401.870117188 373.469726562 333 440 c 0
 324.021484375 448.673828125 295.616230923 447.641500647 251.982421875 439 c 0
 203.604492188 429.418945312 219.224609375 522.348632812 253 598 c 1
115 729 m 1
 88.9580078125 577.233398438 162.104492188 444.520507812 124 450 c 0
 87.298828125 455.27734375 74.917197928 454.973300101 41 434 c 0
 -46.205078125 380.075195312 42.6689453125 371.079101562 45 340 c 0
 47.2734375 309.694335938 70.6171875 301.342773438 145 334 c 1
 196.826171875 236 97.1513671875 149 96 51 c 1
 225.80078125 29.478515625 470.693359375 -23.083984375 447 38 c 1
 550.45703125 38.884765625 573.170898438 61.265625 557 94 c 1
 642.3046875 136.055664062 660.245117188 179.842773438 619 194 c 1
 642.560546875 245.155273438 707.733398438 299.578125 671 346 c 1
 676.067382812 397.95703125 685.663085938 448.939453125 667 506 c 1
 653.20703125 537.430664062 703.956054688 552.205078125 619 602 c 1
 556 695 l 17
 578.729492188 732.140625 497.955078125 726.8984375 440 731 c 1
 447.693359375 766.469726562 291.146568175 711.36915518 286 741 c 0
 280.819335938 770.827148438 115 741.68359375 115 729 c 1
EndSplineSet
EndChar

StartChar: A
Encoding: 65 65 13
Width: 663
Flags: HW
LayerCount: 2
Fore
SplineSet
255 366 m 1
 290.66796875 319.15234375 331.666992188 292.267578125 399 364 c 1
 430.142578125 428.2109375 476.336914062 501.629882812 411 468 c 1
 375.670898438 575.9921875 352.337890625 597.325195312 341 532 c 1
 229.497070312 527.607421875 353.990234375 413.154296875 264 498 c 0
 234.977539062 525.36328125 234.702148438 389.309570312 255 366 c 1
8 41 m 1
 95.3798828125 288.631835938 104.225585938 733.186523438 196 652 c 5
 272.790039062 760.24609375 401.057617188 730.85546875 475 646 c 5
 524.529296875 761.547851562 579.818359375 360.642578125 648 53 c 1
 642.872070312 6.0107421875 622.6796875 -28.6767578125 460 53 c 1
 453.296875 171.875 465.497070312 205.6640625 427 248 c 1
 299.369140625 204.413085938 271.7578125 224.572265625 243 244 c 1
 168.783203125 177.891601562 193.256835938 150.911132812 159 41 c 1
 87.6123046875 17.23046875 0.376953125 -24.4296875 8 41 c 1
EndSplineSet
EndChar

StartChar: a
Encoding: 97 97 14
Width: 652
Flags: HW
LayerCount: 2
Fore
SplineSet
184 350 m 1
 162.325815661 375.68355741 240.615817582 453.160054814 337 406 c 0
 396.485350594 376.894265799 393.918945312 250.744140625 417 227 c 0
 479.033203125 163.18359375 387.137695312 115.946289062 365 124 c 1
 380.302734375 72.6201171875 295.317382812 89.9912109375 215 93 c 1
 157.8515625 93.34375 172.625 115.555664062 151 202 c 1
 139.950195312 245.439453125 92.8163650725 254.135254342 184 350 c 1
206 494 m 1
 206.561674 588.158699691 151.282848012 534.134926417 64 366 c 1
 5.84516268367 220.186248875 -1.82623049068 120.606212751 68 92 c 1
 107.623414956 -16.9371831887 160.212489813 -17.4285439309 160 0 c 0
 159.809640531 15.6133996401 397.140576461 -26.2431187013 369 3 c 0
 362.432435018 9.82488088332 515.795898438 40.9033203125 503 57 c 1
 499.743164062 51.8740234375 588.760796635 -0.804065788899 594 0 c 0
 616.2265625 3.4111328125 661.83984375 45.3876953125 635 71 c 1
 617.37109375 130.978515625 589.207269434 210.24289071 557 227 c 1
 570.300271806 285.037514674 526.364798043 300.883049652 482 423 c 1
 574.949379297 434.198817946 454.259244034 535.358273371 314 512 c 0
 282.884477288 506.81813202 343.466177446 588.658181747 206 494 c 1
EndSplineSet
EndChar

StartChar: I
Encoding: 73 73 15
Width: 282
Flags: HW
LayerCount: 2
Fore
SplineSet
77 582 m 5
 31.78125 636.67578125 82.449431027 419.945288311 86 324 c 1
 50.6170566198 387.327312618 50.5496928683 37.286185456 76 12 c 0
 95.9272011661 -7.79869640462 200.998980977 11.1112484255 200 12 c 1
 192.379681942 126.847671752 259.995868155 -34.6205767109 186 324 c 1
 202.601621866 446.666666668 222.458984375 535.333007812 217 658 c 5
 237.658203125 722.182617188 217.400390625 714.158203125 205 720 c 5
 202.411132812 764.875 184.659179688 746.770507812 131 732 c 5
 112.06640625 739.666992188 108.272460938 728.409179688 99 724 c 5
 18.9208984375 709.228515625 88.314453125 627.551757812 77 582 c 5
EndSplineSet
EndChar

StartChar: i
Encoding: 105 105 16
Width: 307
Flags: HW
LayerCount: 2
Fore
SplineSet
119 666 m 1
 97.119140625 671.409179688 96.2626953125 643.1796875 86 630 c 1
 67.36328125 628.002929688 74.1328125 556.139648438 100 555 c 0
 129.836914062 553.685546875 146.056640625 522.7109375 156 528 c 0
 162.983398438 531.71484375 188.159179688 509.353515625 211 529 c 0
 223.067382812 539.37890625 257.471679688 555.638671875 257 562 c 0
 254.455078125 596.302734375 270.856445312 590.37109375 252 620 c 0
 240.049804688 638.77734375 263.7890625 648.57421875 225 656 c 0
 211.833007812 658.520507812 216.349609375 685.888671875 169 674 c 0
 134.803710938 665.4140625 155.142578125 698.966796875 119 666 c 1
98 289 m 1
 68 270 110.44921875 254.9453125 114 159 c 1
 78.6171875 222.327148438 70.5498046875 41.2861328125 96 16 c 0
 115.926757812 -3.798828125 148.999023438 7.111328125 148 8 c 1
 228 -22 260 38 213 153 c 1
 229.6015625 275.666992188 238.458984375 273.333007812 233 396 c 1
 253.658203125 460.182617188 233.400390625 452.158203125 221 458 c 1
 218.411132812 502.875 200.659179688 484.770507812 147 470 c 1
 128.06640625 477.666992188 124.272460938 466.409179688 115 462 c 1
 34.9208984375 447.228515625 109.314453125 334.551757812 98 289 c 1
EndSplineSet
EndChar

StartChar: R
Encoding: 82 82 17
Width: 546
Flags: HW
LayerCount: 2
Fore
SplineSet
157 446 m 1
 104.173647723 522.813476562 126.537006866 552.7578125 167 579 c 1
 267.831054688 653.205078125 280.010742188 638.430664062 296 594 c 1
 427.523111593 600.195550751 386.610582119 555.084036084 382 527 c 1
 446.5859375 509.197265625 415.938476562 459.669921875 403 412 c 1
 395.5625 380.331054688 324.303710938 373.194335938 245 380 c 1
 189.833007812 386.240234375 146.16796875 399.497070312 157 446 c 1
35 682 m 1
 -22 671 6.9931640625 508.822265625 35 442 c 1
 -23 361 13.609497699 249.692191594 18 142 c 1
 -25.2071163822 155.667272317 -8.90323887478 3.24475106981 14 0 c 0
 17.9604523393 -0.561085793812 133.096607023 2.75141949223 136 0 c 0
 143.535237328 -7.14081732239 184.785042541 251.35541679 160 288 c 1
 223.507866227 130.013483761 266.582299422 64.3323287316 287 101 c 1
 314.615154842 21.95495989 340.864705998 8.24428626159 367 0 c 1
 367 0 519.412927941 1.77000396671 523 0 c 0
 556.491118659 -16.5258494665 418.408801923 257.78476869 312 323 c 1
 366.515891953 295.089715472 418.9162794 233.915816672 481 325 c 1
 494.940964117 396.328473764 562.973632812 240.5859375 524 506 c 1
 573.283203125 545.616210938 506.172851562 612.401367188 457 675 c 1
 446 705 481.852539062 756.905273438 35 682 c 1
EndSplineSet
EndChar

StartChar: r
Encoding: 114 114 18
Width: 375
Flags: HW
LayerCount: 2
Fore
SplineSet
29 36 m 1
 -10.59375 49.779296875 23.3779296875 196.263671875 27 288 c 1
 31.18359375 388 30.341796875 488 21 588 c 1
 25.4296875 666.142578125 67.365234375 566.143554688 131 592 c 0
 176.536132812 610.502929688 139.7734375 472.4609375 139 472 c 1
 178.440429688 534.151367188 200.861328125 621.252929688 225 581 c 1
 397.973632812 583.155273438 344.528320312 560.323242188 341 543 c 1
 405.397460938 461.237304688 353.88671875 480.581054688 347 461 c 1
 383.309570312 386.592773438 299 405 321 401 c 1
 297.876953125 404.998046875 313.331054688 379.586914062 249 415 c 1
 223 435.377929688 217 418.059570312 191 386 c 1
 176.051757812 354.231445312 176.715820312 271.209960938 175 196 c 1
 217.565429688 -14.6904296875 183.037109375 77.380859375 183 34 c 1
 194.705078125 -20.4091796875 100.6640625 17.5703125 29 36 c 1
EndSplineSet
EndChar

StartChar: K
Encoding: 75 75 19
Width: 630
Flags: HW
LayerCount: 2
Fore
SplineSet
75 62 m 5
 89.146484375 199.482421875 -29.2802734375 -20.0029296875 77 356 c 5
 20.3193359375 729.849609375 -0.8076171875 638.15625 49 680 c 5
 125.650390625 750.268554688 219.479492188 866.260742188 199 678 c 5
 301.821289062 666.655273438 234.111328125 545.084960938 195 442 c 5
 259.995117188 517.264648438 343.458007812 736.572265625 369 656 c 5
 531.646484375 762.920898438 541.517578125 729.662109375 543 676 c 5
 691.391601562 648.795898438 429.932617188 441.482421875 301 314 c 5
 368.946289062 191.333007812 721.26171875 210.666992188 583 88 c 5
 570.430664062 56.1923828125 560.333984375 -11.4443359375 419 62 c 5
 360.298828125 26.908203125 287.328125 78.201171875 227 230 c 5
 242.357421875 118.32421875 274.956054688 49.365234375 235 62 c 5
 151.567382812 11.8310546875 79.392578125 -19.57421875 75 62 c 5
EndSplineSet
EndChar

StartChar: k
Encoding: 107 107 20
Width: 454
Flags: HW
LayerCount: 2
Fore
SplineSet
64 61 m 1
 78.146484375 198.482421875 -45.2802734375 -33.0029296875 61 343 c 1
 1.775390625 708.8203125 -13.6708984375 567.334960938 44 634 c 1
 80.59765625 682.470703125 111.2109375 764.734375 194 632 c 1
 263.966796875 620.651367188 215.927734375 543.083984375 184 440 c 1
 252.857421875 517.620117188 264.109375 509.026367188 279 504 c 1
 383.348632812 564.666015625 377 507 398 498 c 1
 446.033203125 478.646484375 465.272460938 468.466796875 271 308 c 1
 343.432617188 189.7109375 487.604492188 174.21875 435 108 c 1
 413.24609375 87.0185546875 458.5546875 60.0166015625 401 35 c 1
 342.298828125 -0.091796875 276.328125 76.201171875 216 228 c 1
 231.357421875 116.32421875 263.956054688 48.365234375 224 61 c 1
 139.776367188 5.35546875 66.6005859375 -32.9765625 64 61 c 1
EndSplineSet
EndChar
